<svg xmlns="http://www.w3.org/2000/svg" width="1280" height="720" viewBox="0 0 1280 720" role="img" aria-labelledby="title desc">
  <title id="title">Flash and Priscilla illustration</title>
  <desc id="desc">Two DMV sloths sharing paperwork on a glowing branch against a rainforest skyline.</desc>
  <defs>
    <linearGradient id="bg" x1="0%" y1="0%" x2="100%" y2="100%">
      <stop offset="0%" stop-color="#1b4332" />
      <stop offset="50%" stop-color="#2d6a4f" />
      <stop offset="100%" stop-color="#52b788" />
    </linearGradient>
    <linearGradient id="highlight" x1="0%" y1="0%" x2="0%" y2="100%">
      <stop offset="0%" stop-color="#e8f7ef" stop-opacity="0.9" />
      <stop offset="100%" stop-color="#c2e9d9" stop-opacity="0.3" />
    </linearGradient>
    <linearGradient id="branch" x1="0%" y1="0%" x2="100%" y2="0%">
      <stop offset="0%" stop-color="#7d5a44" />
      <stop offset="100%" stop-color="#9c7352" />
    </linearGradient>
    <radialGradient id="glow" cx="70%" cy="32%" r="45%">
      <stop offset="0%" stop-color="#c8fff4" stop-opacity="0.55" />
      <stop offset="70%" stop-color="#7be0c3" stop-opacity="0.28" />
      <stop offset="100%" stop-color="#3a7f63" stop-opacity="0" />
    </radialGradient>
  </defs>

  <rect width="1280" height="720" rx="26" fill="url(#bg)" />
  <rect width="1280" height="720" rx="26" fill="url(#glow)" />
  <rect x="90" y="90" width="1100" height="540" rx="22" fill="url(#highlight)" opacity="0.2" />

  <g fill="#0f241a" opacity="0.35">
    <circle cx="170" cy="180" r="42" />
    <circle cx="230" cy="220" r="28" />
    <circle cx="320" cy="160" r="34" />
    <circle cx="1020" cy="180" r="50" />
    <circle cx="1100" cy="230" r="32" />
    <circle cx="920" cy="210" r="26" />
  </g>

  <rect x="180" y="430" width="920" height="60" rx="20" fill="url(#branch)" />
  <rect x="210" y="440" width="860" height="32" rx="16" fill="#6a4b36" opacity="0.35" />
  <circle cx="320" cy="444" r="10" fill="#553623" />
  <circle cx="960" cy="446" r="10" fill="#553623" />

  <!-- Flash -->
  <g transform="translate(360 280)">
    <ellipse cx="80" cy="140" rx="90" ry="86" fill="#3b5d48" />
    <ellipse cx="80" cy="120" rx="62" ry="54" fill="#4f7a63" />
    <ellipse cx="60" cy="110" rx="22" ry="18" fill="#e8f7ef" />
    <ellipse cx="100" cy="108" rx="22" ry="18" fill="#e8f7ef" />
    <circle cx="60" cy="110" r="7" fill="#1c3528" />
    <circle cx="100" cy="108" r="7" fill="#1c3528" />
    <path d="M60 132c14 12 32 12 44 0" fill="none" stroke="#e8f7ef" stroke-width="6" stroke-linecap="round" />
    <path d="M54 74c18-14 54-10 68 6" fill="none" stroke="#e8f7ef" stroke-width="8" stroke-linecap="round" />
    <rect x="118" y="110" width="64" height="34" rx="16" fill="#f3f9f6" opacity="0.9" />
    <path d="M36 166c-26 16-46 46-32 68 8 12 26 14 40 10 20-6 40-22 58-22 16 0 32 10 48 18 20 10 42 18 54 2 12-16 2-46-16-62-24-22-64-30-96-26-22 2-40 8-56 12Z" fill="#4f7a63" />
  </g>

  <!-- Priscilla -->
  <g transform="translate(700 268)">
    <ellipse cx="90" cy="150" rx="92" ry="88" fill="#35543f" />
    <ellipse cx="90" cy="130" rx="64" ry="54" fill="#4b725b" />
    <ellipse cx="70" cy="120" rx="20" ry="18" fill="#e8f7ef" />
    <ellipse cx="110" cy="118" rx="20" ry="18" fill="#e8f7ef" />
    <circle cx="70" cy="120" r="7" fill="#183024" />
    <circle cx="110" cy="118" r="7" fill="#183024" />
    <path d="M66 140c12 10 30 10 40 0" fill="none" stroke="#e8f7ef" stroke-width="6" stroke-linecap="round" />
    <path d="M60 82c20-10 54-6 68 10" fill="none" stroke="#e8f7ef" stroke-width="8" stroke-linecap="round" />
    <rect x="116" y="120" width="70" height="36" rx="16" fill="#f3f9f6" opacity="0.9" />
    <path d="M44 178c-18 12-36 40-26 58 8 14 26 18 42 12 18-6 32-18 50-18 16 0 32 10 50 16 18 6 40 6 52-10 12-16 4-42-12-60-22-24-64-30-94-26-28 4-46 12-62 28Z" fill="#4b725b" />
  </g>

  <!-- Paperwork -->
  <rect x="610" y="308" width="84" height="64" rx="12" fill="#f6fbf8" stroke="#d6ebe1" stroke-width="6" />
  <line x1="628" y1="332" x2="684" y2="332" stroke="#8fb9a2" stroke-width="6" stroke-linecap="round" />
  <line x1="628" y1="352" x2="676" y2="352" stroke="#8fb9a2" stroke-width="6" stroke-linecap="round" />
  <line x1="628" y1="372" x2="672" y2="372" stroke="#8fb9a2" stroke-width="6" stroke-linecap="round" />

  <text x="160" y="640" font-family="'Inter','Arial',sans-serif" font-size="24" fill="#d8f3dc" letter-spacing="1">Meet the Leads · Flash &amp; Priscilla</text>
  <text x="160" y="672" font-family="'Inter','Arial',sans-serif" font-size="18" fill="#b7e4c7">Rainforest DMV duo with slow-rolling charm.</text>
</svg>
