<svg xmlns="http://www.w3.org/2000/svg" width="1200" height="720" viewBox="0 0 1200 720" role="img" aria-label="Stylized skyline of Zootopia with monorail">
  <defs>
    <linearGradient id="sky" x1="0" y1="0" x2="0" y2="1">
      <stop offset="0%" stop-color="#6fd0ff"/>
      <stop offset="70%" stop-color="#d8f1ff"/>
    </linearGradient>
    <linearGradient id="sunset" x1="0" y1="0" x2="1" y2="0">
      <stop offset="0%" stop-color="#ff9f65" stop-opacity="0.9"/>
      <stop offset="100%" stop-color="#ffce8b" stop-opacity="0.9"/>
    </linearGradient>
  </defs>
  <rect width="1200" height="720" fill="url(#sky)"/>
  <circle cx="180" cy="140" r="90" fill="url(#sunset)"/>
  <g fill="#a6c8e8">
    <rect x="80" y="260" width="120" height="280" rx="12"/>
    <rect x="260" y="210" width="90" height="330" rx="12"/>
    <rect x="380" y="250" width="140" height="290" rx="18"/>
    <rect x="560" y="220" width="120" height="320" rx="10"/>
    <rect x="720" y="270" width="100" height="270" rx="12"/>
    <rect x="850" y="230" width="140" height="310" rx="14"/>
    <rect x="1020" y="280" width="90" height="260" rx="10"/>
  </g>
  <g stroke="#0d2136" stroke-width="12" stroke-linecap="round" fill="none" opacity="0.7">
    <path d="M40 420 C 220 410 620 380 1160 400"/>
    <path d="M120 470 C 320 460 780 430 1180 450" stroke-width="10"/>
  </g>
  <rect x="240" y="360" width="520" height="40" rx="20" fill="#2f5ba7" opacity="0.85"/>
  <text x="600" y="160" text-anchor="middle" fill="#0d2136" font-family="Inter, sans-serif" font-size="48" font-weight="700">Zootopia City Skyline</text>
  <text x="600" y="560" text-anchor="middle" fill="#0d2136" font-family="Inter, sans-serif" font-size="26" font-weight="600">Savannah Central trains stretch toward every district</text>
</svg>
